<svg width="240" height="240" viewBox="0 0 240 240" fill="none" xmlns="http://www.w3.org/2000/svg">
<path d="M76.3826 80.0965C76.3789 76.8169 78.7415 73.3574 83.3673 70.6557C91.8177 65.7204 104.601 65.1843 111.919 69.4585C115.199 71.3742 116.819 73.9312 116.854 76.6139H116.855V80.6852V80.8668V84.938L116.85 84.9383C116.851 84.9654 116.848 84.9928 116.848 85.0199L116.855 85.0193V88.9602V89.2722V93.213L116.85 93.2133C116.851 93.2404 116.848 93.2678 116.848 93.2949L116.855 93.2943V97.5472L116.85 97.5477C116.852 97.6128 116.846 97.6786 116.846 97.744L116.855 97.7431V101.996L116.85 101.996C116.941 105.328 114.578 108.864 109.869 111.614C101.418 116.55 88.6356 117.086 81.3173 112.811C77.9238 110.829 76.3237 108.159 76.4022 105.375L76.4051 101.224C76.4035 101.125 76.3995 101.026 76.4022 100.926L76.4041 96.775C76.4041 96.714 76.4006 96.6533 76.4022 96.5923L76.4008 92.4411L76.4038 88.5C76.4038 88.439 76.4003 88.3783 76.4019 88.317L76.377 84.2479H76.3765V80.0967L76.3826 80.0965Z" fill="#DCA700"/>
<path d="M81.3188 95.7535C88.637 100.028 101.42 99.4916 109.87 94.5563C114.541 91.8283 116.901 88.3276 116.85 85.0196L116.856 85.019V89.2719L116.851 89.2722C116.943 92.604 114.58 96.14 109.87 98.8902C101.42 103.825 88.637 104.362 81.3188 100.087C77.9252 98.1053 76.3251 95.4353 76.4036 92.6509L76.4055 88.5005C76.4012 91.2185 78 93.815 81.3188 95.7535Z" fill="#CC8200"/>
<path d="M81.3173 104.029C88.6355 108.303 101.418 107.767 109.869 102.831C114.54 100.103 116.899 96.6027 116.848 93.295L116.855 93.2944V97.5473L116.85 97.5478C116.941 100.88 114.578 104.416 109.869 107.166C101.418 112.101 88.6355 112.638 81.3173 108.363C77.9237 106.381 76.3237 103.711 76.4022 100.927L76.404 96.7767C76.3998 99.4939 77.9985 102.09 81.3173 104.029Z" fill="#CC8200"/>
<path d="M83.3675 70.6557C74.917 75.591 73.9993 83.057 81.3175 87.3313C88.6357 91.6055 101.419 91.0694 109.869 86.1341C118.319 81.1988 119.237 73.7328 111.919 69.4585C104.601 65.1843 91.8179 65.7204 83.3675 70.6557Z" fill="#DCA700"/>
<path d="M116.854 76.614C116.896 79.9171 114.532 83.4108 109.869 86.1342C101.419 91.0695 88.6358 91.6056 81.3176 87.3314C78.0054 85.3967 76.3861 82.808 76.3828 80.0966L76.377 80.0971V84.2483C76.377 84.2483 76.5026 88.8031 81.3176 91.6823C88.5918 96.0327 101.419 95.4205 109.869 90.4851C114.578 87.7347 116.941 84.1987 116.85 80.8669L116.855 80.8666V76.614H116.854Z" fill="#CC8200"/>
<path d="M85.724 72.0304C78.7745 76.0891 78.0197 82.2292 84.0382 85.7443C90.0567 89.2594 100.569 88.8184 107.519 84.7596C114.468 80.7008 115.223 74.561 109.205 71.0457C103.186 67.5306 92.6735 67.9713 85.724 72.0304Z" fill="#FFD800"/>
<path d="M87.5932 76.5678C86.5137 79.7091 91.5079 82.1384 93.6955 82.9507C96.5369 84.0058 99.6751 84.2462 102.491 82.9482L104.397 84.0617L106.194 83.0122L104.283 81.8955C105.023 81.3478 105.568 80.7631 105.914 80.1408L102.844 78.3479C102.452 79.057 101.946 79.6638 101.325 80.1682L93.5854 75.6479C94.4119 75.3248 95.3275 75.1459 96.1964 74.9952L94.3008 72.7629C92.8941 73.0015 91.6525 73.3777 90.5712 73.8872L88.8029 72.8543L87.0059 73.9037L88.8136 74.9594C88.2006 75.4587 87.7906 75.994 87.5932 76.5678C87.3086 77.396 87.7906 75.994 87.5932 76.5678ZM91.9666 76.8017L99.3057 81.0881C97.6635 81.3754 90.8287 79.4218 91.9666 76.8017Z" fill="#DCA700"/>
<path d="M188.608 102.845V120.742L97.1553 174.03L51.4287 147.356V129.551L142.882 76.1384L188.608 102.845Z" fill="#007A6E"/>
<path d="M188.607 102.845V120.742L97.1543 174.03V156.289L188.607 102.845Z" fill="#009F5E"/>
<path d="M97.1538 159.844L188.609 106.411V109.978L97.1538 163.428L51.4937 136.76V133.193L97.1538 159.844Z" fill="#00917F"/>
<path d="M97.1706 166.948L188.608 113.544V117.111L97.1706 170.531L51.4287 143.851V140.288L97.1706 166.948Z" fill="#00917F"/>
<path d="M188.607 106.411V109.978L97.1519 163.428V159.844L188.607 106.411Z" fill="#00AC65"/>
<path d="M188.607 113.544V117.111L97.1694 170.531V166.948L188.607 113.544Z" fill="#00AC65"/>
<path d="M68.1783 139.346L51.4287 129.551L142.882 76.1384L188.608 102.845L97.1553 156.289L68.1783 139.346Z" fill="#00C169"/>
<path d="M60.1768 129.564L97.2043 151.147L179.899 102.845L142.887 81.2458L60.1768 129.564Z" fill="#FFE6C6"/>
<path d="M171.267 102.845L142.916 86.2869L68.9766 129.564L97.2516 146.042L171.267 102.845Z" fill="#00AC65"/>
<path d="M112.399 93.9426L158.125 120.66V138.504L127.704 156.221V138.437L81.9399 111.732L112.399 93.9426Z" fill="#E5AC91"/>
<path d="M112.399 93.9426L158.125 120.66L127.704 138.437L81.9399 111.732L112.399 93.9426Z" fill="#FFD6A0"/>
<path d="M127.703 138.438V156.221L158.124 138.504V120.66L127.703 138.438Z" fill="#E5AC91"/>
<path d="M86.0254 109.345L108.349 96.3069L154.061 123.022L131.774 136.052L86.0254 109.345Z" fill="#FFE6C6"/>
<path d="M154.063 123.022V140.872L131.774 153.859L131.776 136.052L154.063 123.022Z" fill="#FFCBA1"/>
<path d="M139.42 88.8042C142.037 90.3325 145.995 90.4984 148.261 89.1749C150.527 87.8515 150.243 85.5392 147.627 84.0109C145.01 82.4825 141.051 82.3166 138.785 83.6401C136.519 84.9638 136.803 87.2758 139.42 88.8042Z" fill="#FFE6C6"/>
<path d="M142.002 102.143C143.517 103.028 145.81 103.124 147.123 102.357C148.435 101.591 148.271 100.252 146.755 99.3666C145.239 98.4814 142.947 98.3852 141.634 99.1519C140.322 99.9184 140.486 101.257 142.002 102.143Z" fill="#FFE6C6"/>
<path d="M91.2441 131.726C92.7598 132.611 95.0525 132.707 96.365 131.941C97.6776 131.174 97.5131 129.835 95.9974 128.95C94.4818 128.065 92.1891 127.968 90.8765 128.735C89.5637 129.502 89.7284 130.841 91.2441 131.726Z" fill="#FFE6C6"/>
<path d="M65.1824 132.222C67.7992 133.751 71.7576 133.917 74.024 132.593C76.2902 131.27 76.0059 128.957 73.3893 127.429C70.7724 125.901 66.814 125.735 64.5476 127.059C62.2812 128.382 62.5655 130.694 65.1824 132.222Z" fill="#FFE6C6"/>
<path d="M166.89 104.882C169.507 106.411 173.466 106.577 175.732 105.253C177.998 103.93 177.714 101.617 175.097 100.089C172.48 98.5609 168.522 98.395 166.256 99.7185C163.989 101.042 164.274 103.354 166.89 104.882Z" fill="#FFE6C6"/>
<path d="M92.5148 148.314C95.1316 149.842 99.0903 150.008 101.356 148.685C103.623 147.361 103.339 145.049 100.722 143.521C98.1048 141.993 94.1465 141.827 91.88 143.15C89.6139 144.474 89.8979 146.785 92.5148 148.314Z" fill="#FFE6C6"/>
<path d="M144.377 123.518L107.343 101.905L103.386 104.215L140.42 125.874L144.377 123.518Z" fill="#E6C190"/>
<path d="M132.011 125.657L103.727 109.132L99.793 111.442L128.077 127.939L132.011 125.657Z" fill="#E6C190"/>
<path fill-rule="evenodd" clip-rule="evenodd" d="M26.0995 161.94C27.8612 160.92 28.5673 158.742 27.8186 156.849C23.3347 145.51 20.8701 133.147 20.8701 120.207C20.8701 69.6361 58.5114 27.883 107.225 21.5965C109.276 21.3319 110.857 19.6135 110.857 17.5459V3.93535C110.857 1.60746 108.87 -0.234328 106.557 0.0243422C46.6104 6.72694 0 57.7233 0 119.639C0 136.282 3.36807 152.137 9.45789 166.554C10.3719 168.718 12.9824 169.536 15.0153 168.359L26.0995 161.94ZM40.1504 179.139C38.9079 177.448 36.5949 176.912 34.7791 177.963L23.8431 184.296C21.8459 185.453 21.2345 188.059 22.5812 189.933C44.37 220.258 79.8865 240 120 240C159.93 240 195.305 220.439 217.119 190.349C218.477 188.475 217.869 185.858 215.867 184.699L204.927 178.363C203.117 177.316 200.813 177.844 199.567 179.522C181.498 203.867 152.585 219.636 120.001 219.636C87.2449 219.636 58.1998 203.701 40.1504 179.139ZM212.039 157.21C211.281 159.106 211.985 161.293 213.752 162.316L224.827 168.73C226.856 169.904 229.46 169.093 230.38 166.937C236.572 152.418 240 136.43 240 119.639C240 57.7231 193.389 6.72663 133.443 0.0242804C131.129 -0.234378 129.143 1.60739 129.143 3.93529V17.5457C129.143 19.6133 130.724 21.3317 132.774 21.5963C181.489 27.8821 219.131 69.6356 219.131 120.207C219.131 133.285 216.614 145.773 212.039 157.21Z" fill="url(#paint0_linear)"/>
<defs>
<linearGradient id="paint0_linear" x1="184" y1="0.332964" x2="184" y2="240" gradientUnits="userSpaceOnUse">
<stop stop-color="#4DE6A6"/>
<stop offset="1" stop-color="#49CCA0"/>
</linearGradient>
</defs>
</svg>
